<svg xmlns="http://www.w3.org/2000/svg" viewBox="0 0 339 146.91"><defs><style>.a{fill:#ff0028;}</style></defs><title>ATRESplayer logo - Brandlogos.net</title><path class="a" d="M580.55,585.45a3.31,3.31,0,0,1-1.88-.6l-48.85-35.14a3.19,3.19,0,0,1,0-5.18L575.08,512l-45.26-32.54a3.2,3.2,0,0,1,0-5.2l48.86-35.12a3.21,3.21,0,0,1,3.74,0l97.74,70.25a3.25,3.25,0,0,1,1.33,2.6,3.19,3.19,0,0,1-1.32,2.58l-97.75,70.26A3.22,3.22,0,0,1,580.55,585.45Zm-43.38-38.32,43.4,31.19L672.82,512l-92.27-66.32-43.4,31.19,45.26,32.54a3.19,3.19,0,0,1,0,5.18Z" transform="translate(-342.5 -438.55)"/><path d="M357.41,470.48l-14.91,35h7.81l3.18-7.78h14.72l3.18,7.78h8l-14.91-35h-7.07Zm3.44,9.17,4.63,11.26h-9.25Z" transform="translate(-342.5 -438.55)"/><polygon points="54.24 39.22 54.24 66.89 46.59 66.89 46.59 39.22 36.01 39.22 36.01 32.18 64.83 32.18 64.83 39.22 54.24 39.22"/><path d="M435.18,482.57c0-3.28-2.29-5-6-5h-7.6v10h7.75c3.73,0,5.86-2,5.86-4.91C435.18,482.68,435.18,482.57,435.18,482.57ZM435,505.44l-7.45-11.11h-6v11.11H413.9V470.72h15.9c8.2,0,13.13,4.31,13.13,11.45v.11A10.78,10.78,0,0,1,435.48,493l8.5,12.41h-9Z" transform="translate(-342.5 -438.55)"/><polygon points="108.05 66.89 108.05 32.18 134.29 32.18 134.29 38.98 115.67 38.98 115.67 46.01 132.06 46.01 132.06 52.81 115.67 52.81 115.67 60.1 134.55 60.1 134.55 66.89 108.05 66.89"/><path d="M497,505.94a22.2,22.2,0,0,1-14.76-5.55l4.52-5.4c3.13,2.58,6.42,4.22,10.39,4.22,3.13,0,5-1.24,5-3.28v-.11c0-1.93-1.2-2.92-7-4.41-7-1.78-11.54-3.73-11.54-10.61v-.1c0-6.3,5.07-10.46,12.18-10.46a20.21,20.21,0,0,1,12.92,4.41l-4,5.75c-3.09-2.14-6.11-3.41-9-3.41s-4.48,1.33-4.48,3v.1c0,2.29,1.5,3,7.51,4.56,7.06,1.84,11,4.37,11,10.42v.1c0,6.88-5.28,10.76-12.77,10.76" transform="translate(-342.5 -438.55)"/><path d="M367.8,540a10.08,10.08,0,0,1-1.73,3.67A8.21,8.21,0,0,1,363,546.1a10.74,10.74,0,0,1-4.54.88,13.36,13.36,0,0,1-4.63-.79,13.12,13.12,0,0,1-3.24-1.65l-.11-.08V524.58l.2-.05a18.81,18.81,0,0,1,2.46-.42,38.6,38.6,0,0,1,4.27-.18,10.79,10.79,0,0,1,8,3c2,2,3,4.86,3,8.54a19,19,0,0,1-.54,4.49m1.77-16.19a14.84,14.84,0,0,0-5.22-3.16,20.34,20.34,0,0,0-6.91-1.12,43.65,43.65,0,0,0-7.37.56c-2,.35-3.74.69-5.13,1v40.62h5.5V549.06l.41.24a16.3,16.3,0,0,0,3.28,1.35,16.87,16.87,0,0,0,5.07.71,16.26,16.26,0,0,0,6.34-1.17,13.05,13.05,0,0,0,4.67-3.28,14.37,14.37,0,0,0,2.9-5,20.17,20.17,0,0,0,1-6.42,17.85,17.85,0,0,0-1.18-6.67,13.87,13.87,0,0,0-3.33-5" transform="translate(-342.5 -438.55)"/><path d="M386.68,545.79a3.41,3.41,0,0,1-.93-1.55,8.63,8.63,0,0,1-.27-2.34V512.27l-5.5.87v29.66c0,2.86.76,5,2.24,6.31s4,2,7.51,2.14l.75-4.15a16.07,16.07,0,0,1-2.16-.42,4.13,4.13,0,0,1-1.65-.88" transform="translate(-342.5 -438.55)"/><path d="M414.86,546.7l-.2,0a19,19,0,0,1-2.8.34c-1.09.05-2.37.08-3.8.08a11.93,11.93,0,0,1-5.77-1.2,4.61,4.61,0,0,1-2.2-4.38,4.22,4.22,0,0,1,.9-2.78,6.19,6.19,0,0,1,2.2-1.62,10,10,0,0,1,2.87-.76,26,26,0,0,1,6.49,0,8.37,8.37,0,0,1,2.18.53l.16.07,0,9.64Zm2.63-24.09a9.75,9.75,0,0,0-3.92-2.38,18.87,18.87,0,0,0-6-.86,35.72,35.72,0,0,0-5.85.45,21.73,21.73,0,0,0-3.63.83l.63,4.07a24.46,24.46,0,0,1,3.07-.72,31.6,31.6,0,0,1,5.26-.39,9.82,9.82,0,0,1,3.89.65,6.33,6.33,0,0,1,2.41,1.74,6.17,6.17,0,0,1,1.21,2.49,11.92,11.92,0,0,1,.34,2.78v1.88l-.33-.07-.9-.18-1.51-.27c-.57-.1-1.18-.18-1.82-.24s-1.27-.08-1.86-.08a26.5,26.5,0,0,0-5.39.53,15,15,0,0,0-4.46,1.63,8.49,8.49,0,0,0-3,2.9,8.11,8.11,0,0,0-1.1,4.27,9.62,9.62,0,0,0,1,4.48,7.72,7.72,0,0,0,2.64,3,11.71,11.71,0,0,0,4.05,1.66,23.74,23.74,0,0,0,5.2.53c1.32,0,2.68-.05,4-.15s2.61-.2,3.78-.33,2.22-.24,3.13-.38l1.95-.3V531a16.74,16.74,0,0,0-.64-4.73A8.77,8.77,0,0,0,417.48,522.61Z" transform="translate(-342.5 -438.55)"/><path d="M440.54,545.58l-.27-.52c-1-2-2.05-4.16-3-6.34s-1.85-4.41-2.67-6.57-1.56-4.33-2.24-6.39-1.21-3.88-1.67-5.6h-5.93A126.31,126.31,0,0,0,430.51,536a162.32,162.32,0,0,0,7.6,15.15l.07.12-.07.12a13,13,0,0,1-3.71,4.84,9.58,9.58,0,0,1-5.73,1.51,10.39,10.39,0,0,1-2.3-.27,11.35,11.35,0,0,1-1.59-.48l-1,4,.64.2c.39.12.84.22,1.33.33s1,.18,1.5.23a13.61,13.61,0,0,0,1.46.08,17.65,17.65,0,0,0,4.69-.58,11,11,0,0,0,3.7-1.81,14.42,14.42,0,0,0,3-3.13,30.5,30.5,0,0,0,2.67-4.58,162.89,162.89,0,0,0,6.15-15.1c1.85-5.26,3.56-10.8,5.09-16.5h-5.67c-1.06,4.24-2.2,8.43-3.39,12.46s-2.65,8.27-4.29,12.43Z" transform="translate(-342.5 -438.55)"/><path d="M479.46,532.67H462.18l0-.3a12.93,12.93,0,0,1,.83-3.22,9.2,9.2,0,0,1,1.77-2.83,8.7,8.7,0,0,1,2.78-2,9,9,0,0,1,3.77-.78,7.59,7.59,0,0,1,6,2.5,9.14,9.14,0,0,1,2.11,6.35Zm-8-13.29a16.63,16.63,0,0,0-5.62,1,14,14,0,0,0-4.83,3,14.75,14.75,0,0,0-3.37,5,18.21,18.21,0,0,0-1.28,7.09,19.94,19.94,0,0,0,1,6.39,13.23,13.23,0,0,0,3,5,14,14,0,0,0,5.18,3.31,21.17,21.17,0,0,0,7.52,1.21,29.53,29.53,0,0,0,6.2-.6,20.45,20.45,0,0,0,3.62-1l-.75-4.14a23.94,23.94,0,0,1-3,.87,24.34,24.34,0,0,1-5.41.52c-3.81,0-6.67-.87-8.47-2.57s-2.87-4.23-3.13-7.51l0-.29h23.13a7,7,0,0,0,0-.78v-.93c0-5.24-1.2-9.18-3.56-11.73S475.86,519.38,471.42,519.38Z" transform="translate(-342.5 -438.55)"/><path d="M507.47,519.82c-.67-.1-1.33-.18-2-.23s-1.25-.08-1.75-.08a36,36,0,0,0-7.07.63,44,44,0,0,0-5.1,1.28v29.25h5.5v-26l.2,0c.34-.08,1.07-.23,2.18-.45a17.75,17.75,0,0,1,3.39-.33,23.32,23.32,0,0,1,4.3.33q1.37.27,2.12.49l.93-4.31-.94-.2c-.54-.1-1.13-.2-1.78-.3" transform="translate(-342.5 -438.55)"/></svg>